# xmcd
#
# Track frame offsets:
#	150
#	21120
#	36405
#	56910
#	72347
#	90845
#	105062
#	127240
#	138035
#	161450
#	175340
#	187675
#	206590
#	226742
#
# Disc length: 3280 seconds
#
# Revision: 0
# Processed by: cddbd v1.4PL0 Copyright (c) Steve Scherf et al.
# Submitted via: dBpowerAMP V4.0
#
DISCID=ae0cce0e
DTITLE=Fernando Villalona - Baladas
DYEAR=1900
DGENRE=Blues
TTITLE0=Quisqueyano
TTITLE1=Respeta mi dolor
TTITLE2=La hamaquita
TTITLE3=Te amo demasiado
TTITLE4=Carnaval
TTITLE5=Morir soñando
TTITLE6=La chula
TTITLE7=Concavo y convexo
TTITLE8=El polvorete
TTITLE9=La juventud
TTITLE10=Hablame
TTITLE11=Celos
TTITLE12=Santiago
TTITLE13=Amor Amor
EXTD=From: The Saint
EXTT0=
EXTT1=
EXTT2=
EXTT3=
EXTT4=
EXTT5=
EXTT6=
EXTT7=
EXTT8=
EXTT9=
EXTT10=
EXTT11=
EXTT12=
EXTT13=
PLAYORDER=
